<svg width="116" height="42" viewBox="0 0 116 42" fill="none" xmlns="http://www.w3.org/2000/svg">
<path d="M41 20.995C41.001 24.9509 39.8288 28.8182 37.6318 32.1078C35.4348 35.3974 32.3115 37.9616 28.6571 39.4762C25.0027 40.9907 20.9812 41.3874 17.1012 40.6163C13.2213 39.8452 9.65717 37.9407 6.85962 35.1439C4.06208 32.347 2.15677 28.7834 1.38467 24.9036C0.61256 21.0239 1.00834 17.0023 2.52194 13.3475C4.03555 9.69266 6.599 6.5688 9.88809 4.37095C13.1772 2.17311 17.0442 1 21 1C23.6262 0.99935 26.2268 1.51606 28.6533 2.52061C31.0798 3.52516 33.2846 4.99788 35.1418 6.85466C36.9991 8.71144 38.4723 10.9159 39.4775 13.3421C40.4826 15.7684 41 18.3688 41 20.995Z" fill="#1D1C53" stroke="white" stroke-width="0.5" stroke-miterlimit="10"/>
<path d="M26.7578 16.8002C26.5255 17.384 26.3023 17.9909 26.0745 18.6256C25.8103 19.3792 25.5765 20.1097 25.373 20.817L23.9382 25.2044L21.5787 17.6249C21.1232 16.1053 20.6996 14.581 20.2532 13.0614C20.2489 12.9246 20.2943 12.791 20.3808 12.6861C20.4855 12.5332 20.6586 12.4452 21.2599 12.3572C21.5974 12.2779 21.943 12.2406 22.2893 12.246C22.4504 12.2489 22.6087 12.2038 22.7448 12.1163C22.8164 12.0743 22.8823 12.0229 22.9407 11.9634C23.0012 11.9602 23.0591 11.9373 23.1059 11.8981C23.1526 11.8589 23.1857 11.8055 23.2003 11.7456C23.211 11.6758 23.1947 11.6044 23.1548 11.5465C23.1149 11.4887 23.0545 11.4488 22.9862 11.4352L13.9036 11.3704L13.562 11.7225L16.3223 13.0012L17.0101 14.7617L15.2382 19.5846L13.2067 25.2229L11.8129 21.1274C10.9019 18.5283 10.0546 15.9477 9.18008 13.3486C9.15143 13.3029 9.13567 13.25 9.13453 13.1958C9.11266 13.0113 9.15804 12.825 9.26207 12.6722C9.41238 12.4545 9.67202 12.4081 10.1731 12.3201C10.4791 12.2853 10.7832 12.2343 11.0841 12.1672C11.2981 12.1024 11.4485 12.056 11.5396 12.0143C11.5906 11.927 11.6203 11.8285 11.6261 11.7271C11.6345 11.6107 11.604 11.4948 11.5396 11.3982H2.47514C2.4315 11.444 2.39764 11.4986 2.37569 11.5583C2.35375 11.6181 2.34418 11.6819 2.3476 11.7456C2.3886 11.9448 2.62545 12.0329 3.39525 12.3387C3.93273 12.5379 3.85075 12.4962 3.95095 12.5379C4.93939 12.9595 5.17169 13.3116 5.25824 13.4645C5.29557 13.5267 5.32467 13.5937 5.34478 13.6637C5.94604 15.2713 6.56552 16.9068 7.16677 18.5515C7.62227 19.8116 8.25542 21.9011 9.67202 25.45C10.0364 26.6638 10.4828 27.9193 10.9975 29.2166C11.1706 29.6567 11.3619 30.0968 11.535 30.5184C11.8994 30.5416 12.2638 30.5601 12.6282 30.6065L14.0904 26.1727L17.5521 15.8829C18.1306 17.5785 18.7091 19.2974 19.2648 20.9791C20.2942 24.111 21.3237 27.2383 22.3531 30.3887C22.5283 30.5354 22.7458 30.62 22.9726 30.6296C23.1777 30.6264 23.3779 30.5654 23.5511 30.4536C24.875 25.9287 26.2021 21.4023 27.5321 16.8743L26.7578 16.8002Z" fill="white"/>
<path d="M33.5043 10.7993C30.7745 10.7993 28.0547 10.7993 25.3002 10.7745C25.2567 10.8348 25.2297 10.9053 25.2219 10.9792C25.214 11.053 25.2257 11.1277 25.2556 11.1956C25.3249 11.3393 25.4884 11.3889 25.7213 11.4334C26.1053 11.5191 26.4941 11.582 26.8855 11.6217C27.1961 11.6643 27.5005 11.7442 27.7921 11.8595C27.9934 11.9002 28.171 12.0174 28.2875 12.1865C28.3881 12.3492 28.4284 12.542 28.4015 12.7314C28.3073 13.0584 28.2132 13.3903 28.124 13.7223C28.4461 13.7223 28.7978 13.7223 29.1149 13.6777C29.209 13.3705 29.2982 13.0881 29.3725 12.781C29.6393 12.5185 29.9493 12.304 30.289 12.1468C30.5328 12.0271 30.7909 11.9389 31.0569 11.8843C31.8 11.696 32.5432 11.4879 33.316 11.2997C33.3854 11.2254 33.4795 11.1808 33.5489 11.1065C33.5441 11.0029 33.5291 10.9 33.5043 10.7993Z" fill="white"/>
<path d="M37.6807 26.3804C37.2184 27.0836 36.855 27.8471 36.6007 28.6494C36.4734 29.0684 36.2552 29.4541 35.9616 29.7789C35.673 30.0681 35.3092 30.2707 34.9113 30.3635C34.3456 30.5296 33.7718 30.6669 33.1922 30.7747C32.6126 30.8837 31.919 30.9679 31.1461 31.0521L29.3973 31.2751C29.0104 31.3233 28.618 31.3032 28.238 31.2156C28.3173 30.9976 28.5155 30.6112 28.7879 30.0316L28.9861 29.6402L36.6849 14.416C36.6552 14.307 36.6552 14.2228 36.6304 14.1089C36.6056 13.9949 36.6007 13.8909 36.571 13.7819C36.5412 13.6729 36.5165 13.5837 36.4917 13.4747C31.4731 14.0841 29.1793 14.2773 28.0052 14.3318C27.7822 14.3318 26.2316 14.416 24.1261 14.5547C23.8239 14.5795 23.5464 14.5795 23.4077 14.6092C23.5167 16.2937 23.6307 17.9781 23.7396 19.6674C23.9626 19.6674 24.1806 19.6377 24.4035 19.6377C24.6259 19.1711 24.8195 18.6913 24.9831 18.201L25.1813 17.6461C25.3194 17.214 25.5668 16.8249 25.8997 16.5166C26.1678 16.27 26.4903 16.0901 26.841 15.9915C26.9499 15.9617 27.0887 15.937 27.2274 15.9072C27.2787 15.8766 27.3363 15.858 27.3958 15.8527H27.4503C27.6733 15.823 27.9457 15.7685 28.2281 15.7437L28.7235 15.6843C28.8028 15.6843 28.887 15.6595 28.9415 15.6595L33.2219 15.1195L32.4639 16.6801L24.6066 32.3254L24.7206 32.905L35.7981 31.5476C36.093 31.5195 36.39 31.5195 36.6849 31.5476H37.101C37.2943 31.5476 37.4577 31.5178 37.6262 31.5178L38.1513 31.4633C38.1513 30.9382 38.1167 30.3982 38.1216 29.8334C38.1259 28.6978 38.192 27.5633 38.3198 26.4348L37.6807 26.3804Z" fill="white"/>
<path d="M52.64 20.988C52.408 20.924 52.268 20.772 52.22 20.532C52.196 20.484 52.176 20.432 52.16 20.376C51.656 18.08 51.04 15.664 50.312 13.128C50.264 12.968 50.28 12.816 50.36 12.672C50.44 12.528 50.56 12.432 50.72 12.384C50.88 12.336 51.032 12.352 51.176 12.432C51.32 12.512 51.416 12.632 51.464 12.792C51.976 14.6 52.448 16.496 52.88 18.48L53.816 15.648C54.224 14.472 54.528 13.568 54.728 12.936C54.736 12.808 54.776 12.696 54.848 12.6C54.928 12.496 55.032 12.424 55.16 12.384C55.184 12.368 55.22 12.36 55.268 12.36C55.316 12.36 55.372 12.368 55.436 12.384C55.564 12.424 55.664 12.496 55.736 12.6C55.816 12.704 55.856 12.82 55.856 12.948C56.408 14.644 57.036 16.588 57.74 18.78L59.468 12.744C59.516 12.584 59.612 12.464 59.756 12.384C59.908 12.304 60.06 12.288 60.212 12.336C60.372 12.384 60.492 12.484 60.572 12.636C60.652 12.78 60.668 12.928 60.62 13.08L58.364 20.58C58.316 20.732 58.216 20.848 58.064 20.928C57.92 21.008 57.768 21.024 57.608 20.976C57.464 20.928 57.352 20.84 57.272 20.712C57.216 20.648 57.172 20.576 57.14 20.496C56.428 18.368 55.796 16.44 55.244 14.712L54.8 16.32L54.272 17.82L53.84 19.128C53.664 19.664 53.512 20.148 53.384 20.58C53.336 20.74 53.24 20.86 53.096 20.94C52.952 21.02 52.8 21.036 52.64 20.988ZM64.0096 21.06C63.4176 21.02 62.9016 20.9 62.4616 20.7C62.0216 20.5 61.6856 20.248 61.4536 19.944C61.2216 19.64 61.0536 19.36 60.9496 19.104C60.8456 18.848 60.7816 18.596 60.7576 18.348C60.7336 18.092 60.7456 17.764 60.7936 17.364C60.8496 17.028 60.9656 16.696 61.1416 16.368C61.3256 16.04 61.5656 15.748 61.8616 15.492C62.1656 15.228 62.5296 15.028 62.9536 14.892C63.3776 14.748 63.8296 14.704 64.3096 14.76C64.7736 14.816 65.1696 14.944 65.4976 15.144C65.8256 15.336 66.1056 15.584 66.3376 15.888C66.5376 16.144 66.6576 16.336 66.6976 16.464C66.7456 16.592 66.7856 16.712 66.8176 16.824C66.8576 16.936 66.8896 17.032 66.9136 17.112C66.9376 17.192 66.9576 17.276 66.9736 17.364C66.9976 17.444 67.0136 17.54 67.0216 17.652C67.0296 17.804 67.0016 17.944 66.9376 18.072C66.8736 18.2 66.7776 18.3 66.6496 18.372C66.5456 18.412 66.4336 18.432 66.3136 18.432L64.2616 18.468C62.8216 18.476 62.1016 18.492 62.1016 18.516H62.0656C62.1696 18.924 62.3856 19.244 62.7136 19.476C63.0496 19.708 63.5056 19.844 64.0816 19.884C64.3936 19.9 64.6536 19.884 64.8616 19.836C65.0936 19.772 65.2616 19.716 65.3656 19.668C65.4696 19.612 65.5976 19.54 65.7496 19.452C65.9016 19.396 66.0536 19.404 66.2056 19.476C66.3576 19.548 66.4616 19.66 66.5176 19.812C66.5736 19.964 66.5656 20.112 66.4936 20.256C66.4296 20.4 66.3256 20.512 66.1816 20.592C66.0536 20.664 65.9216 20.728 65.7856 20.784C65.6496 20.832 65.4496 20.892 65.1856 20.964C64.9216 21.036 64.5296 21.068 64.0096 21.06ZM62.0896 17.34C62.5536 17.316 63.7576 17.292 65.7016 17.268C65.6296 17.028 65.5136 16.8 65.3536 16.584C65.0336 16.216 64.6376 16.004 64.1656 15.948C63.6696 15.884 63.2336 15.992 62.8576 16.272C62.4816 16.544 62.2256 16.9 62.0896 17.34ZM68.7349 21C68.5669 20.992 68.4269 20.928 68.3149 20.808C68.2029 20.68 68.1509 20.536 68.1589 20.376C68.1749 20.016 68.1869 19.728 68.1949 19.512C68.2029 19.232 68.2109 18.932 68.2189 18.612C68.2269 18.284 68.2309 18.008 68.2309 17.784C68.2389 17.56 68.2389 17.292 68.2309 16.98C68.2309 16.66 68.2309 16.416 68.2309 16.248C68.2309 16.072 68.2269 15.768 68.2189 15.336C68.2189 14.896 68.2149 14.62 68.2069 14.508C68.2069 14.388 68.2029 14.132 68.1949 13.74C68.1869 13.34 68.1829 13.1 68.1829 13.02C68.1829 12.852 68.2389 12.708 68.3509 12.588C68.4629 12.468 68.6029 12.408 68.7709 12.408C68.9389 12.408 69.0829 12.464 69.2029 12.576C69.3229 12.688 69.3829 12.828 69.3829 12.996C69.4069 14.068 69.4189 14.74 69.4189 15.012C69.5389 14.932 69.6629 14.868 69.7909 14.82C70.3349 14.62 70.8269 14.568 71.2669 14.664C71.7069 14.752 72.1029 14.96 72.4549 15.288C72.7589 15.576 73.0069 15.928 73.1989 16.344C73.3989 16.76 73.5269 17.136 73.5829 17.472C73.7189 18.488 73.5429 19.34 73.0549 20.028C72.7749 20.428 72.4069 20.712 71.9509 20.88C71.5029 21.056 70.9869 21.096 70.4029 21C70.0109 20.936 69.6509 20.808 69.3229 20.616C69.2749 20.736 69.1949 20.832 69.0829 20.904C68.9789 20.976 68.8629 21.008 68.7349 21ZM70.5949 19.824C71.2749 19.928 71.7709 19.764 72.0829 19.332C72.3869 18.9 72.4909 18.332 72.3949 17.628C72.2989 17.036 72.0469 16.548 71.6389 16.164C71.2389 15.796 70.7669 15.716 70.2229 15.924C70.1669 15.948 70.1149 15.976 70.0669 16.008C70.0269 16.032 69.9829 16.072 69.9349 16.128L69.7909 16.248C69.7589 16.288 69.7029 16.356 69.6229 16.452C69.5429 16.54 69.4789 16.608 69.4309 16.656C69.4389 17.488 69.4309 18.3 69.4069 19.092L69.4189 19.104C69.6909 19.496 70.0829 19.736 70.5949 19.824ZM75.4966 21C75.3286 20.992 75.1886 20.928 75.0766 20.808C74.9646 20.68 74.9126 20.536 74.9206 20.376C74.9366 20.016 74.9486 19.728 74.9566 19.512C74.9646 19.232 74.9726 18.932 74.9806 18.612C74.9886 18.284 74.9926 18.008 74.9926 17.784C75.0006 17.56 75.0006 17.292 74.9926 16.98C74.9926 16.66 74.9926 16.416 74.9926 16.248C74.9926 16.072 74.9886 15.768 74.9806 15.336C74.9806 14.896 74.9766 14.62 74.9686 14.508C74.9686 14.388 74.9646 14.132 74.9566 13.74C74.9486 13.34 74.9446 13.1 74.9446 13.02C74.9446 12.852 75.0006 12.708 75.1126 12.588C75.2246 12.468 75.3646 12.408 75.5326 12.408C75.7006 12.408 75.8446 12.464 75.9646 12.576C76.0846 12.688 76.1446 12.828 76.1446 12.996C76.1686 14.068 76.1806 14.74 76.1806 15.012C76.3006 14.932 76.4246 14.868 76.5526 14.82C77.0966 14.62 77.5886 14.568 78.0286 14.664C78.4686 14.752 78.8646 14.96 79.2166 15.288C79.5206 15.576 79.7686 15.928 79.9606 16.344C80.1606 16.76 80.2886 17.136 80.3446 17.472C80.4806 18.488 80.3046 19.34 79.8166 20.028C79.5366 20.428 79.1686 20.712 78.7126 20.88C78.2646 21.056 77.7486 21.096 77.1646 21C76.7726 20.936 76.4126 20.808 76.0846 20.616C76.0366 20.736 75.9566 20.832 75.8446 20.904C75.7406 20.976 75.6246 21.008 75.4966 21ZM77.3566 19.824C78.0366 19.928 78.5326 19.764 78.8446 19.332C79.1486 18.9 79.2526 18.332 79.1566 17.628C79.0606 17.036 78.8086 16.548 78.4006 16.164C78.0006 15.796 77.5286 15.716 76.9846 15.924C76.9286 15.948 76.8766 15.976 76.8286 16.008C76.7886 16.032 76.7446 16.072 76.6966 16.128L76.5526 16.248C76.5206 16.288 76.4646 16.356 76.3846 16.452C76.3046 16.54 76.2406 16.608 76.1926 16.656C76.2006 17.488 76.1926 18.3 76.1686 19.092L76.1806 19.104C76.4526 19.496 76.8446 19.736 77.3566 19.824ZM81.6943 20.424C81.6783 19.824 81.6783 18.904 81.6943 17.664C81.7183 16.424 81.7303 15.612 81.7303 15.228C81.7303 15.06 81.7863 14.92 81.8983 14.808C82.0183 14.688 82.1623 14.628 82.3303 14.628C82.4983 14.628 82.6383 14.688 82.7503 14.808C82.8703 14.92 82.9303 15.06 82.9303 15.228C82.9303 15.612 82.9183 16.42 82.8943 17.652C82.8783 18.884 82.8783 19.8 82.8943 20.4C82.8943 20.568 82.8383 20.712 82.7263 20.832C82.6143 20.952 82.4743 21.012 82.3063 21.012C82.1383 21.012 81.9943 20.956 81.8743 20.844C81.7543 20.732 81.6943 20.592 81.6943 20.424ZM82.8103 12.552C82.9463 12.688 83.0143 12.856 83.0143 13.056C83.0143 13.256 82.9463 13.424 82.8103 13.56C82.6743 13.696 82.5063 13.764 82.3063 13.764C82.1063 13.764 81.9383 13.696 81.8023 13.56C81.6663 13.424 81.5983 13.256 81.5983 13.056C81.5983 12.856 81.6663 12.688 81.8023 12.552C81.9383 12.416 82.1063 12.348 82.3063 12.348C82.5143 12.34 82.6823 12.408 82.8103 12.552ZM86.5348 21C85.9188 21.008 85.4308 21 85.0708 20.976C84.8388 20.96 84.6508 20.936 84.5068 20.904C84.4028 20.88 84.3108 20.852 84.2308 20.82C84.0548 20.732 83.9308 20.604 83.8588 20.436C83.8108 20.3 83.8108 20.16 83.8588 20.016C83.8748 19.968 83.8948 19.928 83.9188 19.896C83.9348 19.864 83.9588 19.828 83.9908 19.788L84.1228 19.62L84.4948 19.236L85.0468 18.684C85.7028 18.004 86.2508 17.416 86.6908 16.92C87.0348 16.488 87.2788 16.128 87.4228 15.84C87.1188 15.832 86.8348 15.828 86.5708 15.828C85.5148 15.852 84.8388 15.848 84.5428 15.816C84.3828 15.792 84.2508 15.716 84.1468 15.588C84.0428 15.46 83.9988 15.316 84.0148 15.156C84.0388 14.988 84.1148 14.852 84.2428 14.748C84.3708 14.644 84.5188 14.6 84.6868 14.616C84.9428 14.648 85.3988 14.66 86.0548 14.652C86.7188 14.636 87.2388 14.632 87.6148 14.64H88.1308C88.1468 14.648 88.1628 14.652 88.1788 14.652L88.2508 14.676C88.3388 14.7 88.4148 14.744 88.4788 14.808C88.6948 15.016 88.7828 15.292 88.7428 15.636C88.7188 15.836 88.6468 16.064 88.5268 16.32C88.3508 16.688 88.0548 17.096 87.6388 17.544C87.1748 18.152 86.5988 18.812 85.9108 19.524L85.6348 19.8C85.8668 19.808 86.1628 19.808 86.5228 19.8C86.9388 19.792 87.4268 19.776 87.9868 19.752C88.5628 19.728 88.8828 19.716 88.9468 19.716C89.1148 19.716 89.2548 19.776 89.3668 19.896C89.4868 20.008 89.5468 20.148 89.5468 20.316C89.5468 20.484 89.4868 20.628 89.3668 20.748C89.2548 20.86 89.1148 20.916 88.9468 20.916C88.8828 20.916 88.5628 20.928 87.9868 20.952C87.4188 20.976 86.9348 20.992 86.5348 21ZM94.6533 21C94.5093 20.992 94.3813 20.936 94.2693 20.832C94.1653 20.728 94.1053 20.552 94.0893 20.304C93.7213 20.624 93.3413 20.832 92.9493 20.928C92.3893 21.072 91.8773 20.98 91.4133 20.652C90.9653 20.332 90.6133 19.804 90.3573 19.068C90.2693 18.812 90.2013 18.548 90.1533 18.276C90.1053 17.996 90.0813 17.7 90.0813 17.388C90.0893 17.068 90.0973 16.812 90.1053 16.62C90.1133 16.42 90.1333 16.152 90.1653 15.816C90.1973 15.472 90.2173 15.256 90.2253 15.168C90.2413 15.008 90.3093 14.876 90.4293 14.772C90.5573 14.66 90.7013 14.612 90.8613 14.628C91.0293 14.636 91.1653 14.704 91.2693 14.832C91.3813 14.952 91.4333 15.096 91.4253 15.264C91.4173 15.384 91.3933 15.612 91.3533 15.948C91.3213 16.284 91.3013 16.536 91.2933 16.704C91.2933 16.864 91.2893 17.08 91.2813 17.352C91.2813 17.616 91.2973 17.856 91.3293 18.072C91.3693 18.28 91.4213 18.484 91.4853 18.684C91.6613 19.172 91.8853 19.504 92.1573 19.68C92.2693 19.752 92.4533 19.788 92.7093 19.788C93.0533 19.732 93.3293 19.632 93.5373 19.488C93.7533 19.344 93.9533 19.016 94.1373 18.504C94.1533 17.44 94.1413 16.36 94.1013 15.264C94.0933 15.096 94.1453 14.952 94.2573 14.832C94.3773 14.712 94.5173 14.648 94.6773 14.64C94.8453 14.632 94.9893 14.688 95.1093 14.808C95.2293 14.92 95.2933 15.056 95.3013 15.216C95.3653 17.104 95.3613 18.844 95.2893 20.436C95.2813 20.596 95.2133 20.732 95.0853 20.844C94.9653 20.956 94.8213 21.008 94.6533 21ZM100.241 20.808C99.953 20.92 99.625 20.984 99.257 21C98.897 21.016 98.561 20.976 98.249 20.88C97.937 20.776 97.661 20.62 97.421 20.412C97.005 20.068 96.737 19.64 96.617 19.128C96.497 18.616 96.493 18.156 96.605 17.748C96.717 17.34 96.885 16.944 97.109 16.56C97.341 16.168 97.589 15.84 97.853 15.576C98.125 15.304 98.437 15.076 98.789 14.892C99.141 14.708 99.509 14.62 99.893 14.628C100.277 14.628 100.681 14.732 101.105 14.94C101.169 14.972 101.237 15.02 101.309 15.084C101.389 15.148 101.457 15.204 101.513 15.252L101.669 15.408C101.717 15.456 101.741 15.484 101.741 15.492C101.869 15.604 101.937 15.748 101.945 15.924C102.049 16.404 102.117 16.908 102.149 17.436C102.181 17.964 102.189 18.46 102.173 18.924C102.165 19.388 102.173 19.88 102.197 20.4C102.205 20.56 102.153 20.7 102.041 20.82C101.929 20.94 101.789 21.004 101.621 21.012C101.453 21.02 101.309 20.968 101.189 20.856C101.069 20.744 101.005 20.608 100.997 20.448V20.268C100.757 20.516 100.505 20.696 100.241 20.808ZM99.701 19.728C99.821 19.696 99.917 19.664 99.989 19.632C100.061 19.6 100.149 19.552 100.253 19.488C100.365 19.424 100.481 19.344 100.601 19.248C100.721 19.152 100.829 19.032 100.925 18.888C100.941 18.872 100.961 18.856 100.985 18.84C100.985 17.76 100.917 16.892 100.781 16.236C100.757 16.204 100.729 16.176 100.697 16.152C100.673 16.12 100.653 16.096 100.637 16.08C100.629 16.064 100.613 16.052 100.589 16.044C100.573 16.028 100.553 16.012 100.529 15.996C100.145 15.788 99.741 15.784 99.317 15.984C98.893 16.176 98.521 16.54 98.201 17.076C97.881 17.62 97.721 18.096 97.721 18.504C97.729 18.904 97.885 19.236 98.189 19.5C98.373 19.652 98.601 19.748 98.873 19.788C99.145 19.828 99.421 19.808 99.701 19.728ZM104.842 20.424C104.834 20.592 104.77 20.732 104.65 20.844C104.53 20.956 104.386 21.008 104.218 21C104.05 20.992 103.91 20.928 103.798 20.808C103.686 20.688 103.634 20.544 103.642 20.376C103.674 19.312 103.69 18.504 103.69 17.952C103.69 17.4 103.682 16.576 103.666 15.48C103.65 14.384 103.642 13.56 103.642 13.008C103.642 12.84 103.698 12.7 103.81 12.588C103.93 12.468 104.074 12.408 104.242 12.408C104.41 12.408 104.55 12.468 104.662 12.588C104.782 12.7 104.842 12.84 104.842 13.008C104.842 13.56 104.85 14.344 104.866 15.36C104.882 16.376 104.886 17.3 104.878 18.132C104.878 18.956 104.866 19.72 104.842 20.424Z" fill="#1D1C53"/>
<path d="M48.116 32.4C48.116 32.568 48.056 32.708 47.936 32.82C47.816 32.932 47.672 32.988 47.504 32.988C47.336 32.988 47.196 32.928 47.084 32.808C46.972 32.688 46.916 32.544 46.916 32.376C46.924 32.096 46.92 30.964 46.904 28.98C46.896 27.532 46.92 26.412 46.976 25.62C46.104 25.612 45.368 25.62 44.768 25.644C44.6 25.652 44.456 25.6 44.336 25.488C44.216 25.368 44.152 25.228 44.144 25.068C44.136 24.9 44.188 24.756 44.3 24.636C44.42 24.516 44.56 24.452 44.72 24.444C45.408 24.42 46.364 24.412 47.588 24.42C48.812 24.428 49.768 24.428 50.456 24.42C50.624 24.42 50.768 24.476 50.888 24.588C51.008 24.7 51.068 24.84 51.068 25.008C51.068 25.176 51.012 25.32 50.9 25.44C50.788 25.56 50.648 25.62 50.48 25.62C49.912 25.628 49.144 25.632 48.176 25.632C48.12 26.4 48.096 27.512 48.104 28.968C48.12 30.96 48.124 32.104 48.116 32.4ZM53.6854 33.06C53.0934 33.02 52.5774 32.9 52.1374 32.7C51.6974 32.5 51.3614 32.248 51.1294 31.944C50.8974 31.64 50.7294 31.36 50.6254 31.104C50.5214 30.848 50.4574 30.596 50.4334 30.348C50.4094 30.092 50.4214 29.764 50.4694 29.364C50.5254 29.028 50.6414 28.696 50.8174 28.368C51.0014 28.04 51.2414 27.748 51.5374 27.492C51.8414 27.228 52.2054 27.028 52.6294 26.892C53.0534 26.748 53.5054 26.704 53.9854 26.76C54.4494 26.816 54.8454 26.944 55.1734 27.144C55.5014 27.336 55.7814 27.584 56.0134 27.888C56.2134 28.144 56.3334 28.336 56.3734 28.464C56.4214 28.592 56.4614 28.712 56.4934 28.824C56.5334 28.936 56.5654 29.032 56.5894 29.112C56.6134 29.192 56.6334 29.276 56.6494 29.364C56.6734 29.444 56.6894 29.54 56.6974 29.652C56.7054 29.804 56.6774 29.944 56.6134 30.072C56.5494 30.2 56.4534 30.3 56.3254 30.372C56.2214 30.412 56.1094 30.432 55.9894 30.432L53.9374 30.468C52.4974 30.476 51.7774 30.492 51.7774 30.516H51.7414C51.8454 30.924 52.0614 31.244 52.3894 31.476C52.7254 31.708 53.1814 31.844 53.7574 31.884C54.0694 31.9 54.3294 31.884 54.5374 31.836C54.7694 31.772 54.9374 31.716 55.0414 31.668C55.1454 31.612 55.2734 31.54 55.4254 31.452C55.5774 31.396 55.7294 31.404 55.8814 31.476C56.0334 31.548 56.1374 31.66 56.1934 31.812C56.2494 31.964 56.2414 32.112 56.1694 32.256C56.1054 32.4 56.0014 32.512 55.8574 32.592C55.7294 32.664 55.5974 32.728 55.4614 32.784C55.3254 32.832 55.1254 32.892 54.8614 32.964C54.5974 33.036 54.2054 33.068 53.6854 33.06ZM51.7654 29.34C52.2294 29.316 53.4334 29.292 55.3774 29.268C55.3054 29.028 55.1894 28.8 55.0294 28.584C54.7094 28.216 54.3134 28.004 53.8414 27.948C53.3454 27.884 52.9094 27.992 52.5334 28.272C52.1574 28.544 51.9014 28.9 51.7654 29.34ZM60.6547 33.024C60.1987 33.032 59.7507 32.952 59.3107 32.784C58.8787 32.616 58.5227 32.372 58.2427 32.052C57.9547 31.716 57.7627 31.316 57.6667 30.852C57.5787 30.38 57.5747 29.932 57.6547 29.508C57.7427 29.084 57.8867 28.676 58.0867 28.284C58.2467 27.988 58.4387 27.724 58.6627 27.492C58.8867 27.252 59.1467 27.052 59.4427 26.892C59.7467 26.724 60.0667 26.636 60.4027 26.628C60.7467 26.612 61.1147 26.684 61.5067 26.844C61.7147 26.94 61.9267 27.092 62.1427 27.3L62.5267 27.684C62.6547 27.788 62.7267 27.924 62.7427 28.092C62.7587 28.26 62.7107 28.408 62.5987 28.536C62.4947 28.656 62.3587 28.724 62.1907 28.74C62.0227 28.756 61.8787 28.708 61.7587 28.596C61.6867 28.54 61.6027 28.464 61.5067 28.368L61.3027 28.164C61.1907 28.052 61.0987 27.98 61.0267 27.948C60.6667 27.788 60.3227 27.792 59.9947 27.96C59.6667 28.12 59.3867 28.416 59.1547 28.848C58.9147 29.296 58.7947 29.744 58.7947 30.192C58.8027 30.64 58.9227 30.996 59.1547 31.26C59.2987 31.428 59.5067 31.564 59.7787 31.668C60.0507 31.772 60.3387 31.824 60.6427 31.824C61.2587 31.808 61.6547 31.588 61.8307 31.164L61.8187 31.104V30.756C61.8267 30.588 61.8907 30.452 62.0107 30.348C62.1387 30.236 62.2867 30.184 62.4547 30.192C62.6227 30.2 62.7587 30.268 62.8627 30.396C62.9747 30.516 63.0267 30.66 63.0187 30.828V31.092C63.0267 31.292 62.9987 31.468 62.9347 31.62C62.7507 32.084 62.4467 32.432 62.0227 32.664C61.6067 32.896 61.1507 33.016 60.6547 33.024ZM69.3214 32.424C69.3134 32.592 69.2494 32.732 69.1294 32.844C69.0094 32.956 68.8654 33.008 68.6974 33C68.5374 33 68.4014 32.94 68.2894 32.82C68.1774 32.7 68.1214 32.56 68.1214 32.4C68.1214 32.392 68.1454 32.016 68.1934 31.272C68.2414 30.456 68.2494 29.836 68.2174 29.412C68.1454 28.412 67.7774 27.888 67.1134 27.84C66.7614 27.816 66.4694 27.872 66.2374 28.008C66.0134 28.136 65.7934 28.364 65.5774 28.692C65.5614 28.716 65.5294 28.772 65.4814 28.86C65.5374 30.588 65.5654 31.772 65.5654 32.412C65.5654 32.58 65.5054 32.724 65.3854 32.844C65.2734 32.956 65.1334 33.012 64.9654 33.012C64.7974 33.012 64.6534 32.956 64.5334 32.844C64.4214 32.724 64.3654 32.58 64.3654 32.412C64.3654 32.044 64.3334 30.8 64.2694 28.68C64.2214 27.088 64.2134 25.824 64.2454 24.888C64.2534 24.728 64.3174 24.592 64.4374 24.48C64.5574 24.36 64.6974 24.304 64.8574 24.312C65.0254 24.32 65.1654 24.384 65.2774 24.504C65.3974 24.624 65.4534 24.768 65.4454 24.936C65.4374 25.152 65.4334 25.988 65.4334 27.444C65.9454 26.852 66.5454 26.584 67.2334 26.64C68.5614 26.752 69.2894 27.644 69.4174 29.316C69.4414 29.78 69.4454 30.184 69.4294 30.528C69.4214 30.872 69.4014 31.252 69.3694 31.668C69.3374 32.084 69.3214 32.336 69.3214 32.424ZM71.4902 33C71.3302 33 71.1902 32.948 71.0702 32.844C70.9502 32.732 70.8902 32.584 70.8902 32.4C70.8902 31.768 70.8862 31.224 70.8782 30.768C70.8622 29.408 70.8542 28.228 70.8542 27.228C70.8542 27.044 70.9102 26.9 71.0222 26.796C71.1342 26.692 71.2702 26.64 71.4302 26.64C71.5982 26.64 71.7422 26.696 71.8622 26.808C71.9902 26.912 72.0542 27.06 72.0542 27.252V27.624C72.5502 26.976 73.2022 26.652 74.0102 26.652C74.7062 26.652 75.2382 26.896 75.6062 27.384C75.9822 27.872 76.1702 28.528 76.1702 29.352C76.1702 30.264 76.1582 30.864 76.1342 31.152L76.0742 31.956L76.0382 32.472C76.0222 32.632 75.9582 32.76 75.8462 32.856C75.7342 32.952 75.6022 33 75.4502 33C75.2902 33 75.1502 32.948 75.0302 32.844C74.9102 32.732 74.8502 32.584 74.8502 32.4C74.8502 32.272 74.8782 31.828 74.9342 31.068C74.9742 30.548 74.9942 30.14 74.9942 29.844C74.9942 29.164 74.8982 28.664 74.7062 28.344C74.5142 28.016 74.2182 27.852 73.8182 27.852C73.5302 27.852 73.2302 27.94 72.9182 28.116C72.6142 28.292 72.3262 28.516 72.0542 28.788L72.0782 30.492L72.0902 32.4C72.0902 32.584 72.0302 32.732 71.9102 32.844C71.7902 32.948 71.6502 33 71.4902 33ZM80.8917 32.916C79.8357 33.172 78.9917 32.96 78.3597 32.28C77.8557 31.76 77.5437 31.092 77.4237 30.276C77.3357 29.636 77.4117 29.028 77.6517 28.452C77.9397 27.716 78.3957 27.172 79.0197 26.82C79.1477 26.748 79.3077 26.696 79.4997 26.664C79.5077 26.664 79.5637 26.66 79.6677 26.652C79.7077 26.644 79.7397 26.636 79.7637 26.628C79.8837 26.604 80.0037 26.616 80.1237 26.664C80.1557 26.664 80.2317 26.668 80.3517 26.676C80.4717 26.676 80.5517 26.68 80.5917 26.688C80.6317 26.688 80.6997 26.696 80.7957 26.712C80.8997 26.72 80.9837 26.732 81.0477 26.748L81.2757 26.832C81.3717 26.864 81.4637 26.904 81.5517 26.952C81.6397 27 81.7357 27.056 81.8397 27.12C82.3597 27.472 82.7197 27.968 82.9197 28.608C83.1197 29.24 83.1717 29.752 83.0757 30.144C83.0037 30.576 82.8757 30.98 82.6917 31.356C82.5077 31.724 82.2517 32.052 81.9237 32.34C81.6037 32.628 81.2597 32.82 80.8917 32.916ZM80.5197 31.668C80.8637 31.62 81.1557 31.444 81.3957 31.14C81.6437 30.828 81.8037 30.5 81.8757 30.156C81.9557 29.812 81.9277 29.436 81.7917 29.028C81.6637 28.612 81.4557 28.312 81.1677 28.128C81.0797 28.064 81.0077 28.02 80.9517 27.996C80.8957 27.964 80.8277 27.94 80.7477 27.924C80.6757 27.9 80.6157 27.888 80.5677 27.888C80.5277 27.888 80.4357 27.884 80.2917 27.876C80.1477 27.868 80.0197 27.86 79.9077 27.852C79.8837 27.852 79.8557 27.848 79.8237 27.84C79.7357 27.848 79.6877 27.852 79.6797 27.852L79.5957 27.876C79.2437 28.068 78.9717 28.376 78.7797 28.8C78.5957 29.216 78.5437 29.648 78.6237 30.096C78.7117 30.64 78.9077 31.052 79.2117 31.332C79.5397 31.636 79.9757 31.748 80.5197 31.668ZM85.588 32.424C85.58 32.592 85.516 32.732 85.396 32.844C85.276 32.956 85.132 33.008 84.964 33C84.796 32.992 84.656 32.928 84.544 32.808C84.432 32.688 84.38 32.544 84.388 32.376C84.42 31.312 84.436 30.504 84.436 29.952C84.436 29.4 84.428 28.576 84.412 27.48C84.396 26.384 84.388 25.56 84.388 25.008C84.388 24.84 84.444 24.7 84.556 24.588C84.676 24.468 84.82 24.408 84.988 24.408C85.156 24.408 85.296 24.468 85.408 24.588C85.528 24.7 85.588 24.84 85.588 25.008C85.588 25.56 85.596 26.344 85.612 27.36C85.628 28.376 85.632 29.3 85.624 30.132C85.624 30.956 85.612 31.72 85.588 32.424ZM90.3018 32.916C89.2458 33.172 88.4018 32.96 87.7698 32.28C87.2658 31.76 86.9538 31.092 86.8338 30.276C86.7458 29.636 86.8218 29.028 87.0618 28.452C87.3498 27.716 87.8058 27.172 88.4298 26.82C88.5578 26.748 88.7178 26.696 88.9098 26.664C88.9178 26.664 88.9738 26.66 89.0778 26.652C89.1178 26.644 89.1498 26.636 89.1738 26.628C89.2938 26.604 89.4138 26.616 89.5338 26.664C89.5658 26.664 89.6418 26.668 89.7618 26.676C89.8818 26.676 89.9618 26.68 90.0018 26.688C90.0418 26.688 90.1098 26.696 90.2058 26.712C90.3098 26.72 90.3938 26.732 90.4578 26.748L90.6858 26.832C90.7818 26.864 90.8738 26.904 90.9618 26.952C91.0498 27 91.1458 27.056 91.2498 27.12C91.7698 27.472 92.1298 27.968 92.3298 28.608C92.5298 29.24 92.5818 29.752 92.4858 30.144C92.4138 30.576 92.2858 30.98 92.1018 31.356C91.9178 31.724 91.6618 32.052 91.3338 32.34C91.0138 32.628 90.6698 32.82 90.3018 32.916ZM89.9298 31.668C90.2738 31.62 90.5658 31.444 90.8058 31.14C91.0538 30.828 91.2138 30.5 91.2858 30.156C91.3658 29.812 91.3378 29.436 91.2018 29.028C91.0738 28.612 90.8658 28.312 90.5778 28.128C90.4898 28.064 90.4178 28.02 90.3618 27.996C90.3058 27.964 90.2378 27.94 90.1578 27.924C90.0858 27.9 90.0258 27.888 89.9778 27.888C89.9378 27.888 89.8458 27.884 89.7018 27.876C89.5578 27.868 89.4298 27.86 89.3178 27.852C89.2938 27.852 89.2658 27.848 89.2338 27.84C89.1458 27.848 89.0978 27.852 89.0898 27.852L89.0058 27.876C88.6538 28.068 88.3818 28.376 88.1898 28.8C88.0058 29.216 87.9538 29.648 88.0338 30.096C88.1218 30.64 88.3178 31.052 88.6218 31.332C88.9498 31.636 89.3858 31.748 89.9298 31.668ZM96.5821 35.46C96.1181 35.5 95.6701 35.448 95.2381 35.304C94.8141 35.16 94.4621 34.908 94.1821 34.548C94.0781 34.412 93.9901 34.244 93.9181 34.044C93.8541 33.844 93.8621 33.668 93.9421 33.516C94.0221 33.372 94.1381 33.276 94.2901 33.228C94.4501 33.18 94.6021 33.196 94.7461 33.276C94.8981 33.356 94.9981 33.472 95.0461 33.624C95.0621 33.688 95.0821 33.772 95.1061 33.876C95.1301 33.988 95.2181 34.096 95.3701 34.2C95.7301 34.328 96.1261 34.384 96.5581 34.368C96.9501 34.352 97.2501 34.268 97.4581 34.116C97.6661 33.972 97.7981 33.804 97.8541 33.612C97.9341 33.34 97.9981 32.908 98.0461 32.316C97.7421 32.636 97.2821 32.828 96.6661 32.892C96.1381 32.916 95.6621 32.844 95.2381 32.676C94.8221 32.5 94.4901 32.252 94.2421 31.932C94.0021 31.612 93.8261 31.256 93.7141 30.864C93.6021 30.488 93.5621 30.016 93.5941 29.448C93.6581 28.568 94.0021 27.86 94.6261 27.324C95.3221 26.772 96.1621 26.576 97.1461 26.736C97.5061 26.856 97.7901 27 97.9981 27.168C98.0061 26.848 98.1581 26.652 98.4541 26.58C98.6461 26.564 98.7981 26.608 98.9101 26.712C99.0301 26.816 99.1021 26.948 99.1261 27.108C99.2141 28.084 99.2661 29.276 99.2821 30.684C99.2901 31.484 99.2661 32.152 99.2101 32.688C99.1461 33.488 98.9581 34.084 98.6461 34.476C98.3341 34.876 98.0221 35.128 97.7101 35.232C97.3981 35.344 97.0221 35.42 96.5821 35.46ZM96.5821 31.668C96.8781 31.676 97.1061 31.64 97.2661 31.56C97.7301 31.416 97.9981 31.036 98.0701 30.42C98.1101 29.948 98.0901 29.496 98.0101 29.064C97.9541 28.792 97.7901 28.556 97.5181 28.356C97.3581 28.228 97.1541 28.144 96.9061 28.104C96.2661 27.992 95.7741 28.088 95.4301 28.392C95.1021 28.656 94.9141 29.044 94.8661 29.556C94.8261 30.228 94.9581 30.752 95.2621 31.128C95.5741 31.496 96.0141 31.676 96.5821 31.668ZM100.796 32.424C100.78 31.824 100.78 30.904 100.796 29.664C100.82 28.424 100.832 27.612 100.832 27.228C100.832 27.06 100.888 26.92 101 26.808C101.12 26.688 101.264 26.628 101.432 26.628C101.6 26.628 101.74 26.688 101.852 26.808C101.972 26.92 102.032 27.06 102.032 27.228C102.032 27.612 102.02 28.42 101.996 29.652C101.98 30.884 101.98 31.8 101.996 32.4C101.996 32.568 101.94 32.712 101.828 32.832C101.716 32.952 101.576 33.012 101.408 33.012C101.24 33.012 101.096 32.956 100.976 32.844C100.856 32.732 100.796 32.592 100.796 32.424ZM101.912 24.552C102.048 24.688 102.116 24.856 102.116 25.056C102.116 25.256 102.048 25.424 101.912 25.56C101.776 25.696 101.608 25.764 101.408 25.764C101.208 25.764 101.04 25.696 100.904 25.56C100.768 25.424 100.7 25.256 100.7 25.056C100.7 24.856 100.768 24.688 100.904 24.552C101.04 24.416 101.208 24.348 101.408 24.348C101.616 24.34 101.784 24.408 101.912 24.552ZM106.56 33.06C105.968 33.02 105.452 32.9 105.012 32.7C104.572 32.5 104.236 32.248 104.004 31.944C103.772 31.64 103.604 31.36 103.5 31.104C103.396 30.848 103.332 30.596 103.308 30.348C103.284 30.092 103.296 29.764 103.344 29.364C103.4 29.028 103.516 28.696 103.692 28.368C103.876 28.04 104.116 27.748 104.412 27.492C104.716 27.228 105.08 27.028 105.504 26.892C105.928 26.748 106.38 26.704 106.86 26.76C107.324 26.816 107.72 26.944 108.048 27.144C108.376 27.336 108.656 27.584 108.888 27.888C109.088 28.144 109.208 28.336 109.248 28.464C109.296 28.592 109.336 28.712 109.368 28.824C109.408 28.936 109.44 29.032 109.464 29.112C109.488 29.192 109.508 29.276 109.524 29.364C109.548 29.444 109.564 29.54 109.572 29.652C109.58 29.804 109.552 29.944 109.488 30.072C109.424 30.2 109.328 30.3 109.2 30.372C109.096 30.412 108.984 30.432 108.864 30.432L106.812 30.468C105.372 30.476 104.652 30.492 104.652 30.516H104.616C104.72 30.924 104.936 31.244 105.264 31.476C105.6 31.708 106.056 31.844 106.632 31.884C106.944 31.9 107.204 31.884 107.412 31.836C107.644 31.772 107.812 31.716 107.916 31.668C108.02 31.612 108.148 31.54 108.3 31.452C108.452 31.396 108.604 31.404 108.756 31.476C108.908 31.548 109.012 31.66 109.068 31.812C109.124 31.964 109.116 32.112 109.044 32.256C108.98 32.4 108.876 32.512 108.732 32.592C108.604 32.664 108.472 32.728 108.336 32.784C108.2 32.832 108 32.892 107.736 32.964C107.472 33.036 107.08 33.068 106.56 33.06ZM104.64 29.34C105.104 29.316 106.308 29.292 108.252 29.268C108.18 29.028 108.064 28.8 107.904 28.584C107.584 28.216 107.188 28.004 106.716 27.948C106.22 27.884 105.784 27.992 105.408 28.272C105.032 28.544 104.776 28.9 104.64 29.34ZM111.994 33C111.402 32.896 110.974 32.656 110.71 32.28C110.582 32.112 110.49 31.888 110.434 31.608L110.386 31.344C110.37 31.264 110.354 31.2 110.338 31.152C110.29 31 110.306 30.852 110.386 30.708C110.466 30.564 110.586 30.472 110.746 30.432C110.906 30.392 111.058 30.408 111.202 30.48C111.346 30.552 111.442 30.668 111.49 30.828C111.514 30.916 111.538 31.016 111.562 31.128C111.57 31.168 111.574 31.208 111.574 31.248C111.582 31.28 111.598 31.34 111.622 31.428C111.646 31.532 111.702 31.62 111.79 31.692C111.886 31.78 112.03 31.836 112.222 31.86C112.542 31.924 112.886 31.916 113.254 31.836C113.614 31.756 113.894 31.64 114.094 31.488C114.238 31.36 114.298 31.228 114.274 31.092C114.25 30.868 114.11 30.7 113.854 30.588C113.694 30.516 113.278 30.42 112.606 30.3C111.91 30.164 111.418 29.988 111.13 29.772C110.602 29.38 110.43 28.796 110.614 28.02C110.726 27.572 110.954 27.244 111.298 27.036C111.65 26.82 112.038 26.7 112.462 26.676C112.822 26.66 113.186 26.704 113.554 26.808C113.93 26.904 114.25 27.04 114.514 27.216C114.602 27.28 114.694 27.356 114.79 27.444C114.886 27.532 114.978 27.628 115.066 27.732C115.162 27.836 115.218 27.892 115.234 27.9C115.354 28.02 115.414 28.16 115.414 28.32C115.414 28.472 115.354 28.608 115.234 28.728C115.122 28.84 114.982 28.896 114.814 28.896C114.654 28.896 114.514 28.84 114.394 28.728C114.314 28.656 114.234 28.58 114.154 28.5L113.986 28.296C113.938 28.256 113.882 28.216 113.818 28.176C113.666 28.08 113.47 28 113.23 27.936C112.99 27.864 112.754 27.832 112.522 27.84C112.098 27.864 111.854 28.012 111.79 28.284C111.718 28.572 111.742 28.76 111.862 28.848C112.006 28.952 112.33 29.056 112.834 29.16C113.578 29.288 114.086 29.412 114.358 29.532C115.014 29.828 115.386 30.304 115.474 30.96C115.546 31.496 115.346 31.96 114.874 32.352C114.514 32.648 114.058 32.852 113.506 32.964C112.978 33.084 112.474 33.096 111.994 33Z" fill="#1D1C53"/>
</svg>
